<svg xmlns="http://www.w3.org/2000/svg" width="64" height="64" viewBox="0 0 64 64" fill="none">
  <defs>
    <linearGradient id="ps-gradient" x1="14" y1="12" x2="52" y2="52" gradientUnits="userSpaceOnUse">
      <stop stop-color="#67E8F9" />
      <stop offset="0.55" stop-color="#60A5FA" />
      <stop offset="1" stop-color="#A78BFA" />
    </linearGradient>
  </defs>
  <rect x="6" y="6" width="52" height="52" rx="16" fill="#09111F" />
  <rect x="6.75" y="6.75" width="50.5" height="50.5" rx="15.25" stroke="rgba(255,255,255,0.12)" stroke-width="1.5" />
  <path d="M21 44V20H31C37.2 20 40.5 23.05 40.5 28.1C40.5 33.15 37.2 36.2 31 36.2H26V44H21ZM26 31.9H30.55C33.35 31.9 35.3 30.6 35.3 28.1C35.3 25.55 33.35 24.3 30.55 24.3H26V31.9Z" fill="url(#ps-gradient)" />
  <path d="M45.35 43.85C42.35 43.85 39.65 42.95 37.55 41.1L40.2 37.55C41.85 38.9 43.7 39.6 45.55 39.6C47.55 39.6 48.65 38.8 48.65 37.45C48.65 35.95 47.15 35.6 44.8 35.05C41.5 34.25 38.3 32.95 38.3 28.9C38.3 24.6 41.75 21.65 46.55 21.65C49.4 21.65 51.8 22.45 53.8 24.05L51.15 27.6C49.5 26.45 47.95 25.95 46.4 25.95C44.55 25.95 43.65 26.8 43.65 27.95C43.65 29.4 44.95 29.8 47.55 30.45C50.95 31.25 54 32.5 54 36.4C54 40.85 50.65 43.85 45.35 43.85Z" fill="white" fill-opacity="0.92" />
</svg>
